<svg width="80" height="80" viewBox="0 0 80 80" fill="none" xmlns="http://www.w3.org/2000/svg"><path d="M20 66V24C20 20 23 17 27 17H53C57 17 60 20 60 24V66" stroke="#597180" stroke-width="5" stroke-linejoin="round"/><path d="M10 66V36C10 33 12 31 15 31H20" stroke="#597180" stroke-width="5" stroke-linejoin="round"/><path d="M60 31H65C68 31 70 33 70 36V66" stroke="#597180" stroke-width="5" stroke-linejoin="round"/><rect x="30" y="28" width="7" height="7" rx="1.5" fill="#597180"/><rect x="43" y="28" width="7" height="7" rx="1.5" fill="#597180"/><rect x="30" y="41" width="7" height="7" rx="1.5" fill="#597180"/><rect x="43" y="41" width="7" height="7" rx="1.5" fill="#597180"/><path d="M35 66V55H45V66" fill="#597180"/></svg>